<svg version="1.1" class="clearos-svg clearfoundation app-vendor-burgess app-free app-category-server app-sub-category-virtualization" viewBox="0 0 400 400" preserveAspectRatio="xMinYMin" xmlns="http://www.w3.org/2000/svg" xmlns:xlink= "http://www.w3.org/1999/xlink">
<path fill="#AA0707" d="M91.666,184.647"/>
<path fill="#AA0707" d="M123.245,247.805"/>
<path fill="#AA0707" d="M91.666,184.647"/>
<path fill="#AA0707" d="M123.245,247.805"/>
<g>
	<path fill="#686868" d="M101.33,312.952H11.11c-4.646,0-8.396,3.771-8.396,8.388v58.063c0,4.615,3.765,8.391,8.396,8.357h90.22
		c4.646,0,8.404-3.773,8.404-8.357V321.34C109.749,316.725,105.976,312.952,101.33,312.952z"/>
	<path fill="#686868" d="M245.425,312.952h-90.211c-4.646,0-8.396,3.804-8.396,8.388v58.063c0,4.584,3.773,8.357,8.396,8.357h90.211
		c4.646,0,8.39-3.773,8.39-8.357V321.34C253.846,316.725,250.07,312.952,245.425,312.952z"/>
	<path fill="#686868" d="M388.896,312.952h-90.213c-4.646,0-8.418,3.804-8.418,8.388v58.063c0,4.584,3.771,8.357,8.418,8.357h90.213
		c4.646,0,8.39-3.773,8.39-8.357V321.34C397.302,316.725,393.544,312.952,388.896,312.952z"/>
	<path fill="#686868" d="M55.303,290.938c0-20.955,16.987-37.949,37.965-37.949h95.288v53.511h17.047v-53.511h91.164
		c20.972,0,37.949,16.994,37.949,37.949v10.229h16.137V279.96c0-23.387-18.941-42.33-42.313-42.33H205.62v-15.903h84.476
		c9.309,0,16.886-7.563,16.886-16.86V136.66c-0.03-9.386-7.593-16.878-16.917-16.878v-0.031H103.73
		c-9.308,0-16.878,7.523-16.878,16.878v68.221c0,9.314,7.57,16.861,16.878,16.861h84.826v15.903H81.536
		c-23.387,0-42.339,18.959-42.339,42.346v21.205h16.122v-10.229L55.303,290.938L55.303,290.938z M126.51,188.657
		c-9.901,0-17.946-8.062-17.946-17.962c0-9.877,8.045-17.906,17.946-17.906c9.9,0,17.946,8.029,17.946,17.922
		C144.456,180.627,136.426,188.657,126.51,188.657z"/>
	<path fill="#686868" d="M103.668,114.216h186.364c9.293,0,16.869-7.554,16.869-16.878V29.149c0-9.371-7.576-16.878-16.869-16.878
		V12.24H103.668c-9.308,0-16.877,7.523-16.877,16.878v68.205C86.791,106.662,94.36,114.216,103.668,114.216z M126.463,45.286
		c9.9,0,17.946,8.022,17.946,17.93c0,9.917-8.03,17.93-17.946,17.93s-17.946-8.014-17.946-17.93
		C108.517,53.308,116.562,45.286,126.463,45.286z"/>
</g>
</svg>
